<?xml version="1.0" encoding="utf-8"?>
<!-- Generator: Adobe Illustrator 15.0.0, SVG Export Plug-In . SVG Version: 6.00 Build 0)  -->
<!DOCTYPE svg PUBLIC "-//W3C//DTD SVG 1.1//EN" "http://www.w3.org/Graphics/SVG/1.1/DTD/svg11.dtd">
<svg version="1.1" id="Layer_1" xmlns="http://www.w3.org/2000/svg" xmlns:xlink="http://www.w3.org/1999/xlink" x="0px" y="0px"
	 width="297.532px" height="104.62px" viewBox="0 0 297.532 104.62" enable-background="new 0 0 297.532 104.62"
	 xml:space="preserve">
<g id="Logo_1_">
	<g opacity="0.35">
		<path d="M154.936,38.759c-12.526,0.221-23.294,10.848-24.053,23.737c-0.759,12.889,9.396,24.41,22.681,25.732
			c13.286,1.322,24.053-9.306,24.053-23.738S167.462,38.54,154.936,38.759z M156.492,76.06c-6.89,0.813-12.753-5.488-12.357-13.506
			c0.39-8.022,3.597-13.036,10.095-13.173c6.496-0.137,10.425,7.321,9.683,16.042C163.346,72.1,159.21,75.74,156.492,76.06z"/>
		<path d="M180.046,65.809c0,14.432,10.769,25.059,24.054,23.738c13.285-1.323,23.44-12.844,22.682-25.732
			c-0.757-12.891-11.528-23.518-24.053-23.737C190.201,39.856,180.046,51.376,180.046,65.809z M193.751,66.741
			c-0.742-8.722,3.188-16.18,9.684-16.043c6.498,0.137,9.703,5.15,10.096,13.172c0.394,8.02-5.471,14.32-12.36,13.507
			C198.453,77.056,194.318,73.417,193.751,66.741z"/>
		<polygon points="3.306,94.62 3.306,20.526 18.829,16.544 18.791,48.109 45.002,22.829 58.482,28.008 39.433,49.144 52.068,95.175 
			38.36,95.175 28.249,59.909 18.7,69.259 18.829,95.175 		"/>
		<g>
			<path d="M110.199,62.302C110.193,62.173,110.208,62.461,110.199,62.302C110.208,62.456,110.193,62.168,110.199,62.302z"/>
			<path d="M110.199,62.302C110.194,62.197,110.207,62.413,110.199,62.302C110.207,62.411,110.193,62.194,110.199,62.302z"/>
			<path d="M110.199,62.302C110.186,62.025,110.217,62.646,110.199,62.302C110.215,62.619,110.185,62.004,110.199,62.302z"/>
			<path d="M110.199,62.302C110.196,62.253,110.202,62.35,110.199,62.302C110.202,62.352,110.196,62.254,110.199,62.302z"/>
			<path d="M110.199,62.302C110.208,62.457,110.207,62.442,110.199,62.302L110.199,62.302z"/>
			<path d="M110.199,62.302C110.191,62.145,110.211,62.545,110.199,62.302C110.213,62.561,110.191,62.154,110.199,62.302z"/>
			<path d="M110.199,62.302C110.196,62.25,110.205,62.397,110.199,62.302C110.205,62.393,110.196,62.248,110.199,62.302z"/>
			<path d="M110.199,62.302C110.189,62.091,110.211,62.54,110.199,62.302C110.213,62.551,110.19,62.103,110.199,62.302z"/>
			<path d="M110.199,62.302C110.188,62.051,110.211,62.542,110.199,62.302C110.213,62.563,110.188,62.07,110.199,62.302z"/>
			<path d="M110.199,62.302C110.198,62.266,110.199,62.302,110.199,62.302C110.202,62.321,110.198,62.283,110.199,62.302z"/>
			<path d="M110.199,62.302C110.196,62.234,110.202,62.348,110.199,62.302C110.203,62.36,110.196,62.245,110.199,62.302z"/>
			<path d="M110.199,62.302C110.198,62.28,110.202,62.325,110.199,62.302C110.202,62.321,110.198,62.275,110.199,62.302z"/>
			<path d="M110.199,62.302C110.193,62.189,110.207,62.419,110.199,62.302C110.205,62.399,110.193,62.167,110.199,62.302z"/>
			<path d="M110.199,62.302C110.177,61.868,110.225,62.818,110.199,62.302C110.219,62.688,110.173,61.762,110.199,62.302z"/>
			<path d="M110.199,62.302C110.196,62.251,110.202,62.348,110.199,62.302C110.202,62.352,110.196,62.252,110.199,62.302z"/>
			<path d="M116.657,89.445h13.63l-5.126-36.276c-1.939-21.189-9.665-21.238-24.092-16.631l-0.301-33.232L87.505,6.849l2.115,82.146
				l13.026,0.45L101.892,47c2.855-1.262,12.29-3.918,12.607,6.543l1.266,14.921L116.657,89.445z"/>
		</g>
		<polygon points="280.978,89.873 277.127,98.936 285.274,104.62 293.304,99.817 289.92,89.873 		"/>
		<path d="M224.334,33.466l2.232,15.417h9.331l0.647,36.67c0,0-1.46,13.192,18.423,10.173c0,0,6.22-1.864,6.021-6.266V74.977
			c0,0-4.189,2.503-8.741,2.503s-4.582-2.222-4.582-2.222l-1.219-28.401l14.542-0.812v-9.332l-14.885-0.981l0.182-19.219
			l-10.355-4.292l-0.014,21.65L224.334,33.466z"/>
		<polygon points="270.095,11.411 297.532,16.696 286.942,84.728 		"/>
		<path d="M55.188,37.029l3.636,9.593c9.015-5.477,14.109,0.021,14.109,0.021l-0.071,6.124C45.996,57.529,52.796,82.66,52.796,82.66
			c2.718,9.862,11.56,9.522,11.56,9.522l20.144,0.001l0.383-45.732C81.724,25.167,55.188,37.028,55.188,37.029z M72.833,83.434
			c0,0-9.744,2.388-10.816-7.213c0,0,0.205-14.857,11.183-13.262L72.833,83.434z"/>
	</g>
	<g>
		<path fill="#FFFFFF" d="M151.63,35.454c-12.526,0.221-23.294,10.848-24.053,23.737c-0.759,12.889,9.396,24.41,22.681,25.732
			c13.286,1.322,24.053-9.306,24.053-23.738S164.156,35.234,151.63,35.454z M153.187,72.754c-6.89,0.813-12.753-5.488-12.357-13.506
			c0.39-8.022,3.597-13.036,10.095-13.173c6.496-0.137,10.425,7.321,9.683,16.042C160.04,68.794,155.904,72.435,153.187,72.754z"/>
		<path fill="#FFFFFF" d="M176.74,62.504c0,14.432,10.769,25.059,24.054,23.738c13.285-1.323,23.44-12.844,22.682-25.732
			c-0.757-12.891-11.528-23.518-24.053-23.737C186.896,36.551,176.74,48.071,176.74,62.504z M190.445,63.436
			c-0.742-8.722,3.188-16.18,9.684-16.043c6.498,0.137,9.703,5.15,10.096,13.172c0.394,8.02-5.471,14.32-12.36,13.507
			C195.147,73.751,191.013,70.111,190.445,63.436z"/>
		<polygon fill="#FFFFFF" points="0,91.314 0,17.221 15.523,13.239 15.485,44.804 41.696,19.523 55.177,24.703 36.127,45.838 
			48.763,91.87 35.054,91.87 24.943,56.604 15.394,65.954 15.523,91.87 		"/>
		<g>
			<path fill="#FFFFFF" d="M106.894,58.997C106.888,58.868,106.902,59.156,106.894,58.997
				C106.902,59.15,106.888,58.863,106.894,58.997z"/>
			<path fill="#FFFFFF" d="M106.894,58.997C106.889,58.892,106.901,59.107,106.894,58.997
				C106.901,59.106,106.888,58.889,106.894,58.997z"/>
			<path fill="#FFFFFF" d="M106.894,58.997C106.88,58.72,106.911,59.341,106.894,58.997
				C106.909,59.314,106.879,58.699,106.894,58.997z"/>
			<path fill="#FFFFFF" d="M106.894,58.997C106.891,58.948,106.896,59.045,106.894,58.997
				C106.896,59.047,106.891,58.949,106.894,58.997z"/>
			<path fill="#FFFFFF" d="M106.894,58.997C106.902,59.152,106.901,59.137,106.894,58.997L106.894,58.997z"/>
			<path fill="#FFFFFF" d="M106.894,58.997C106.886,58.84,106.905,59.24,106.894,58.997
				C106.907,59.256,106.886,58.849,106.894,58.997z"/>
			<path fill="#FFFFFF" d="M106.894,58.997C106.891,58.944,106.899,59.092,106.894,58.997
				C106.899,59.088,106.891,58.942,106.894,58.997z"/>
			<path fill="#FFFFFF" d="M106.894,58.997C106.884,58.786,106.905,59.234,106.894,58.997
				C106.907,59.246,106.885,58.798,106.894,58.997z"/>
			<path fill="#FFFFFF" d="M106.894,58.997C106.882,58.746,106.905,59.237,106.894,58.997
				C106.907,59.258,106.882,58.765,106.894,58.997z"/>
			<path fill="#FFFFFF" d="M106.894,58.997C106.893,58.961,106.894,58.997,106.894,58.997
				C106.896,59.016,106.893,58.978,106.894,58.997z"/>
			<path fill="#FFFFFF" d="M106.894,58.997C106.891,58.929,106.896,59.042,106.894,58.997
				C106.897,59.055,106.891,58.94,106.894,58.997z"/>
			<path fill="#FFFFFF" d="M106.894,58.997C106.893,58.975,106.896,59.02,106.894,58.997
				C106.896,59.016,106.893,58.97,106.894,58.997z"/>
			<path fill="#FFFFFF" d="M106.894,58.997C106.888,58.884,106.901,59.114,106.894,58.997
				C106.899,59.094,106.888,58.861,106.894,58.997z"/>
			<path fill="#FFFFFF" d="M106.894,58.997C106.871,58.562,106.919,59.513,106.894,58.997
				C106.913,59.383,106.867,58.457,106.894,58.997z"/>
			<path fill="#FFFFFF" d="M106.894,58.997C106.891,58.946,106.896,59.043,106.894,58.997
				C106.896,59.047,106.891,58.947,106.894,58.997z"/>
			<path fill="#FFFFFF" d="M113.352,86.14h13.63l-5.126-36.276c-1.939-21.189-9.665-21.238-24.092-16.631L97.463,0L84.199,3.544
				l2.115,82.146l13.026,0.45l-0.755-42.445c2.855-1.262,12.29-3.918,12.607,6.543l1.266,14.921L113.352,86.14z"/>
		</g>
		<polygon fill="#FFFFFF" points="277.672,86.567 273.821,95.63 281.969,101.314 289.998,96.512 286.614,86.567 		"/>
		<path fill="#FFFFFF" d="M221.028,30.161l2.232,15.417h9.331l0.647,36.67c0,0-1.46,13.192,18.423,10.173
			c0,0,6.22-1.864,6.021-6.266V71.671c0,0-4.189,2.503-8.741,2.503s-4.582-2.222-4.582-2.222l-1.219-28.401l14.542-0.812v-9.332
			l-14.885-0.981l0.182-19.219l-10.355-4.292l-0.014,21.65L221.028,30.161z"/>
		<polygon fill="#FFFFFF" points="266.789,8.105 294.227,13.391 283.637,81.423 		"/>
		<path fill="#FFFFFF" d="M51.882,33.724l3.636,9.593c9.015-5.477,14.109,0.021,14.109,0.021l-0.071,6.124
			C42.69,54.224,49.49,79.355,49.49,79.355c2.718,9.862,11.56,9.522,11.56,9.522l20.144,0.001l0.383-45.732
			C78.418,21.862,51.883,33.723,51.882,33.724z M69.527,80.128c0,0-9.744,2.388-10.816-7.213c0,0,0.205-14.857,11.183-13.262
			L69.527,80.128z"/>
	</g>
</g>
</svg>
